<?xml version="1.0" encoding="UTF-8" standalone="no"?><!DOCTYPE svg PUBLIC "-//W3C//DTD SVG 1.1//EN" "http://www.w3.org/Graphics/SVG/1.1/DTD/svg11.dtd"><svg width="100%" height="100%" viewBox="0 0 112 9" version="1.1" xmlns="http://www.w3.org/2000/svg" xmlns:xlink="http://www.w3.org/1999/xlink" xml:space="preserve" xmlns:serif="http://www.serif.com/" style="fill-rule:evenodd;clip-rule:evenodd;stroke-linejoin:round;stroke-miterlimit:2;"><rect id="Artboard1" x="0" y="0" width="111.671" height="8.974" style="fill:none;"/><g transform="matrix(0.24,0,0,0.24,-41.1198,-74.4075)"><g transform="matrix(50,0,0,50,171.952,345.41)"><path d="M0.494,-0.19l0.18,0c-0.001,0.039 -0.005,0.069 -0.012,0.09c-0.006,0.021 -0.017,0.039 -0.032,0.055c-0.023,0.023 -0.054,0.038 -0.092,0.046c-0.038,0.007 -0.104,0.011 -0.197,0.011c-0.073,0 -0.127,-0.003 -0.164,-0.009c-0.036,-0.006 -0.066,-0.018 -0.09,-0.034c-0.022,-0.017 -0.038,-0.04 -0.047,-0.07c-0.009,-0.03 -0.013,-0.076 -0.013,-0.139c-0,-0.057 0.004,-0.1 0.012,-0.129c0.008,-0.029 0.023,-0.052 0.044,-0.068c0.022,-0.019 0.053,-0.031 0.09,-0.038c0.038,-0.007 0.097,-0.01 0.177,-0.01c0.079,-0 0.138,0.003 0.178,0.01c0.039,0.008 0.071,0.02 0.093,0.038c0.019,0.015 0.032,0.034 0.04,0.056c0.008,0.023 0.012,0.056 0.014,0.1l-0.18,0c-0.003,-0.027 -0.015,-0.045 -0.036,-0.056c-0.021,-0.01 -0.058,-0.015 -0.109,-0.015c-0.053,-0 -0.089,0.005 -0.11,0.015c-0.013,0.006 -0.023,0.017 -0.028,0.033c-0.006,0.016 -0.008,0.039 -0.008,0.07c-0,0.03 0.003,0.053 0.008,0.067c0.006,0.014 0.017,0.025 0.032,0.031c0.022,0.01 0.058,0.015 0.108,0.015c0.052,-0 0.088,-0.005 0.107,-0.014c0.02,-0.01 0.031,-0.028 0.035,-0.055Z" style="fill:#fff;fill-rule:nonzero;"/></g><g transform="matrix(50,0,0,50,204.263,345.41)"><path d="M0.04,-0.473l0.167,-0l-0,0.071l0.008,0c0.017,-0.03 0.039,-0.052 0.067,-0.064c0.028,-0.013 0.067,-0.019 0.116,-0.019c0.072,-0 0.121,0.014 0.149,0.042c0.028,0.028 0.042,0.077 0.042,0.149c0,0.004 0,0.014 -0.001,0.031l-0.166,0c-0,-0.027 -0.003,-0.047 -0.009,-0.058c-0.011,-0.021 -0.039,-0.031 -0.084,-0.031c-0.042,-0 -0.072,0.011 -0.09,0.034c-0.009,0.012 -0.014,0.026 -0.018,0.042c-0.003,0.017 -0.004,0.044 -0.004,0.08l-0,0.196l-0.177,-0l0,-0.473Z" style="fill:#fff;fill-rule:nonzero;"/></g><g transform="matrix(50,0,0,50,231.995,345.41)"><path d="M0.04,-0.473l0.177,-0l-0,0.473l-0.177,-0l0,-0.473Zm0,-0.194l0.177,0l-0,0.133l-0.177,0l0,-0.133Z" style="fill:#fff;fill-rule:nonzero;"/></g><g transform="matrix(50,0,0,50,241.687,345.41)"><path d="M0.04,-0.473l0.167,-0l-0,0.071l0.008,-0c0.026,-0.056 0.09,-0.083 0.192,-0.083c0.057,-0 0.102,0.007 0.136,0.023c0.033,0.015 0.06,0.041 0.079,0.076c0.014,-0.035 0.037,-0.061 0.069,-0.076c0.032,-0.016 0.077,-0.023 0.135,-0.023c0.049,-0 0.089,0.004 0.12,0.014c0.031,0.01 0.057,0.025 0.077,0.047c0.02,0.021 0.033,0.045 0.04,0.071c0.006,0.027 0.01,0.071 0.01,0.132l-0,0.221l-0.177,0l-0,-0.221c-0,-0.035 -0.001,-0.059 -0.004,-0.072c-0.003,-0.014 -0.008,-0.025 -0.016,-0.033c-0.017,-0.017 -0.05,-0.026 -0.1,-0.026c-0.051,-0 -0.086,0.01 -0.105,0.03c-0.01,0.011 -0.017,0.025 -0.02,0.043c-0.004,0.017 -0.006,0.045 -0.006,0.084l0,0.195l-0.177,0l0,-0.221c0,-0.037 -0.001,-0.061 -0.003,-0.074c-0.002,-0.012 -0.007,-0.022 -0.015,-0.031c-0.017,-0.017 -0.049,-0.026 -0.098,-0.026c-0.053,-0 -0.09,0.01 -0.109,0.029c-0.01,0.01 -0.017,0.024 -0.021,0.042c-0.003,0.018 -0.005,0.047 -0.005,0.086l-0,0.195l-0.177,0l0,-0.473Z" style="fill:#fff;fill-rule:nonzero;"/></g><g transform="matrix(50,0,0,50,294.506,345.41)"><path d="M0.487,-0.151l0.176,-0c-0.005,0.051 -0.02,0.088 -0.047,0.11c-0.023,0.02 -0.055,0.034 -0.096,0.042c-0.042,0.007 -0.105,0.011 -0.188,0.011c-0.069,0 -0.121,-0.003 -0.158,-0.01c-0.037,-0.006 -0.066,-0.018 -0.088,-0.034c-0.022,-0.017 -0.038,-0.041 -0.046,-0.069c-0.009,-0.029 -0.013,-0.073 -0.013,-0.133c-0,-0.045 0.001,-0.079 0.005,-0.102c0.003,-0.022 0.009,-0.043 0.018,-0.061c0.019,-0.038 0.053,-0.062 0.103,-0.074c0.042,-0.009 0.108,-0.014 0.197,-0.014c0.079,-0 0.134,0.002 0.167,0.008c0.057,0.01 0.096,0.031 0.118,0.064c0.021,0.033 0.032,0.089 0.032,0.167c-0,0.007 -0,0.023 -0.001,0.048l-0.462,-0c-0,0.024 0.001,0.041 0.004,0.052c0.003,0.01 0.009,0.019 0.019,0.025c0.017,0.013 0.057,0.02 0.119,0.02c0.039,-0 0.069,-0.002 0.088,-0.005c0.02,-0.003 0.033,-0.008 0.041,-0.015c0.005,-0.006 0.01,-0.016 0.012,-0.03Zm0.002,-0.144c-0,-0.018 -0.002,-0.031 -0.003,-0.038c-0.002,-0.007 -0.006,-0.014 -0.011,-0.019c-0.015,-0.016 -0.056,-0.023 -0.122,-0.023c-0.06,-0 -0.099,0.005 -0.119,0.015c-0.019,0.011 -0.029,0.032 -0.03,0.065l0.285,0Z" style="fill:#fff;fill-rule:nonzero;"/></g><g transform="matrix(50,0,0,50,337.374,345.41)"><path d="M0.494,-0.19l0.18,0c-0.001,0.039 -0.005,0.069 -0.012,0.09c-0.006,0.021 -0.017,0.039 -0.032,0.055c-0.023,0.023 -0.054,0.038 -0.092,0.046c-0.038,0.007 -0.104,0.011 -0.197,0.011c-0.073,0 -0.127,-0.003 -0.164,-0.009c-0.036,-0.006 -0.066,-0.018 -0.09,-0.034c-0.022,-0.017 -0.038,-0.04 -0.047,-0.07c-0.009,-0.03 -0.013,-0.076 -0.013,-0.139c-0,-0.057 0.004,-0.1 0.012,-0.129c0.008,-0.029 0.023,-0.052 0.044,-0.068c0.022,-0.019 0.053,-0.031 0.09,-0.038c0.038,-0.007 0.097,-0.01 0.177,-0.01c0.079,-0 0.138,0.003 0.178,0.01c0.039,0.008 0.071,0.02 0.093,0.038c0.019,0.015 0.032,0.034 0.04,0.056c0.008,0.023 0.012,0.056 0.014,0.1l-0.18,0c-0.003,-0.027 -0.015,-0.045 -0.036,-0.056c-0.021,-0.01 -0.058,-0.015 -0.109,-0.015c-0.053,-0 -0.089,0.005 -0.11,0.015c-0.013,0.006 -0.023,0.017 -0.028,0.033c-0.006,0.016 -0.008,0.039 -0.008,0.07c-0,0.03 0.003,0.053 0.008,0.067c0.006,0.014 0.017,0.025 0.032,0.031c0.022,0.01 0.058,0.015 0.108,0.015c0.052,-0 0.088,-0.005 0.107,-0.014c0.02,-0.01 0.031,-0.028 0.035,-0.055Z" style="fill:#fff;fill-rule:nonzero;"/></g><g transform="matrix(50,0,0,50,369.685,345.41)"><path d="M0.362,-0.485c0.08,-0 0.14,0.003 0.18,0.009c0.04,0.007 0.071,0.018 0.094,0.034c0.023,0.017 0.039,0.039 0.048,0.067c0.008,0.027 0.012,0.07 0.012,0.129c0,0.044 -0.001,0.077 -0.003,0.099c-0.003,0.022 -0.007,0.042 -0.014,0.06c-0.017,0.044 -0.051,0.072 -0.103,0.084c-0.043,0.01 -0.114,0.015 -0.214,0.015c-0.088,0 -0.151,-0.003 -0.189,-0.009c-0.038,-0.007 -0.069,-0.019 -0.091,-0.038c-0.022,-0.018 -0.037,-0.041 -0.044,-0.07c-0.007,-0.029 -0.011,-0.078 -0.011,-0.147c-0,-0.039 0.001,-0.069 0.004,-0.089c0.004,-0.02 0.01,-0.039 0.018,-0.056c0.018,-0.034 0.048,-0.058 0.091,-0.07c0.043,-0.012 0.117,-0.018 0.222,-0.018Zm0.001,0.133c-0.058,-0 -0.098,0.005 -0.118,0.014c-0.015,0.006 -0.026,0.018 -0.032,0.034c-0.006,0.016 -0.009,0.039 -0.009,0.071c-0,0.031 0.002,0.053 0.007,0.066c0.006,0.013 0.016,0.023 0.03,0.03c0.023,0.011 0.063,0.016 0.122,0.016c0.067,-0 0.11,-0.007 0.128,-0.021c0.019,-0.014 0.029,-0.046 0.029,-0.096c-0,-0.031 -0.003,-0.054 -0.009,-0.068c-0.006,-0.014 -0.017,-0.025 -0.032,-0.031c-0.022,-0.01 -0.061,-0.015 -0.116,-0.015Z" style="fill:#fff;fill-rule:nonzero;"/></g><g transform="matrix(50,0,0,50,402.692,345.41)"><path d="M0.04,-0.473l0.167,-0l-0,0.071l0.008,-0c0.026,-0.056 0.09,-0.083 0.192,-0.083c0.057,-0 0.102,0.007 0.136,0.023c0.033,0.015 0.06,0.041 0.079,0.076c0.014,-0.035 0.037,-0.061 0.069,-0.076c0.032,-0.016 0.077,-0.023 0.135,-0.023c0.049,-0 0.089,0.004 0.12,0.014c0.031,0.01 0.057,0.025 0.077,0.047c0.02,0.021 0.033,0.045 0.04,0.071c0.006,0.027 0.01,0.071 0.01,0.132l-0,0.221l-0.177,0l-0,-0.221c-0,-0.035 -0.001,-0.059 -0.004,-0.072c-0.003,-0.014 -0.008,-0.025 -0.016,-0.033c-0.017,-0.017 -0.05,-0.026 -0.1,-0.026c-0.051,-0 -0.086,0.01 -0.105,0.03c-0.01,0.011 -0.017,0.025 -0.02,0.043c-0.004,0.017 -0.006,0.045 -0.006,0.084l0,0.195l-0.177,0l0,-0.221c0,-0.037 -0.001,-0.061 -0.003,-0.074c-0.002,-0.012 -0.007,-0.022 -0.015,-0.031c-0.017,-0.017 -0.049,-0.026 -0.098,-0.026c-0.053,-0 -0.09,0.01 -0.109,0.029c-0.01,0.01 -0.017,0.024 -0.021,0.042c-0.003,0.018 -0.005,0.047 -0.005,0.086l-0,0.195l-0.177,0l0,-0.473Z" style="fill:#fff;fill-rule:nonzero;"/></g><g transform="matrix(50,0,0,50,455.011,345.41)"><path d="M0.04,-0.473l0.167,-0l-0,0.071l0.008,-0c0.026,-0.056 0.09,-0.083 0.192,-0.083c0.057,-0 0.102,0.007 0.136,0.023c0.033,0.015 0.06,0.041 0.079,0.076c0.014,-0.035 0.037,-0.061 0.069,-0.076c0.032,-0.016 0.077,-0.023 0.135,-0.023c0.049,-0 0.089,0.004 0.12,0.014c0.031,0.01 0.057,0.025 0.077,0.047c0.02,0.021 0.033,0.045 0.04,0.071c0.006,0.027 0.01,0.071 0.01,0.132l-0,0.221l-0.177,0l-0,-0.221c-0,-0.035 -0.001,-0.059 -0.004,-0.072c-0.003,-0.014 -0.008,-0.025 -0.016,-0.033c-0.017,-0.017 -0.05,-0.026 -0.1,-0.026c-0.051,-0 -0.086,0.01 -0.105,0.03c-0.01,0.011 -0.017,0.025 -0.02,0.043c-0.004,0.017 -0.006,0.045 -0.006,0.084l0,0.195l-0.177,0l0,-0.221c0,-0.037 -0.001,-0.061 -0.003,-0.074c-0.002,-0.012 -0.007,-0.022 -0.015,-0.031c-0.017,-0.017 -0.049,-0.026 -0.098,-0.026c-0.053,-0 -0.09,0.01 -0.109,0.029c-0.01,0.01 -0.017,0.024 -0.021,0.042c-0.003,0.018 -0.005,0.047 -0.005,0.086l-0,0.195l-0.177,0l0,-0.473Z" style="fill:#fff;fill-rule:nonzero;"/></g><g transform="matrix(50,0,0,50,507.33,345.41)"><path d="M0.04,-0.473l0.177,-0l-0,0.473l-0.177,-0l0,-0.473Zm0,-0.194l0.177,0l-0,0.133l-0.177,0l0,-0.133Z" style="fill:#fff;fill-rule:nonzero;"/></g><g transform="matrix(50,0,0,50,518.521,345.41)"><path d="M0.093,-0.582l0.177,-0l0,0.109l0.28,-0l-0,0.126l-0.28,0l0,0.138c0,0.037 0.003,0.06 0.008,0.07c0.009,0.016 0.029,0.024 0.062,0.024c0.035,0 0.056,-0.008 0.064,-0.023c0.003,-0.006 0.005,-0.012 0.006,-0.018c0,-0.007 0.001,-0.022 0.001,-0.047l0.161,0c-0,0.046 -0.003,0.078 -0.008,0.099c-0.005,0.02 -0.014,0.038 -0.027,0.056c-0.018,0.022 -0.042,0.038 -0.073,0.047c-0.031,0.009 -0.078,0.013 -0.139,0.013c-0.056,0 -0.099,-0.003 -0.126,-0.009c-0.028,-0.006 -0.05,-0.018 -0.067,-0.035c-0.013,-0.012 -0.022,-0.026 -0.028,-0.04c-0.005,-0.015 -0.008,-0.035 -0.01,-0.061c-0,-0.009 -0.001,-0.035 -0.001,-0.076l0,-0.138l-0.093,0l-0,-0.126l0.093,-0l0,-0.109Z" style="fill:#fff;fill-rule:nonzero;"/></g><g transform="matrix(50,0,0,50,545.826,345.41)"><path d="M0.093,-0.582l0.177,-0l0,0.109l0.28,-0l-0,0.126l-0.28,0l0,0.138c0,0.037 0.003,0.06 0.008,0.07c0.009,0.016 0.029,0.024 0.062,0.024c0.035,0 0.056,-0.008 0.064,-0.023c0.003,-0.006 0.005,-0.012 0.006,-0.018c0,-0.007 0.001,-0.022 0.001,-0.047l0.161,0c-0,0.046 -0.003,0.078 -0.008,0.099c-0.005,0.02 -0.014,0.038 -0.027,0.056c-0.018,0.022 -0.042,0.038 -0.073,0.047c-0.031,0.009 -0.078,0.013 -0.139,0.013c-0.056,0 -0.099,-0.003 -0.126,-0.009c-0.028,-0.006 -0.05,-0.018 -0.067,-0.035c-0.013,-0.012 -0.022,-0.026 -0.028,-0.04c-0.005,-0.015 -0.008,-0.035 -0.01,-0.061c-0,-0.009 -0.001,-0.035 -0.001,-0.076l0,-0.138l-0.093,0l-0,-0.126l0.093,-0l0,-0.109Z" style="fill:#fff;fill-rule:nonzero;"/></g><g transform="matrix(50,0,0,50,573.046,345.41)"><path d="M0.487,-0.151l0.176,-0c-0.005,0.051 -0.02,0.088 -0.047,0.11c-0.023,0.02 -0.055,0.034 -0.096,0.042c-0.042,0.007 -0.105,0.011 -0.188,0.011c-0.069,0 -0.121,-0.003 -0.158,-0.01c-0.037,-0.006 -0.066,-0.018 -0.088,-0.034c-0.022,-0.017 -0.038,-0.041 -0.046,-0.069c-0.009,-0.029 -0.013,-0.073 -0.013,-0.133c-0,-0.045 0.001,-0.079 0.005,-0.102c0.003,-0.022 0.009,-0.043 0.018,-0.061c0.019,-0.038 0.053,-0.062 0.103,-0.074c0.042,-0.009 0.108,-0.014 0.197,-0.014c0.079,-0 0.134,0.002 0.167,0.008c0.057,0.01 0.096,0.031 0.118,0.064c0.021,0.033 0.032,0.089 0.032,0.167c-0,0.007 -0,0.023 -0.001,0.048l-0.462,-0c-0,0.024 0.001,0.041 0.004,0.052c0.003,0.01 0.009,0.019 0.019,0.025c0.017,0.013 0.057,0.02 0.119,0.02c0.039,-0 0.069,-0.002 0.088,-0.005c0.02,-0.003 0.033,-0.008 0.041,-0.015c0.005,-0.006 0.01,-0.016 0.012,-0.03Zm0.002,-0.144c-0,-0.018 -0.002,-0.031 -0.003,-0.038c-0.002,-0.007 -0.006,-0.014 -0.011,-0.019c-0.015,-0.016 -0.056,-0.023 -0.122,-0.023c-0.06,-0 -0.099,0.005 -0.119,0.015c-0.019,0.011 -0.029,0.032 -0.03,0.065l0.285,0Z" style="fill:#fff;fill-rule:nonzero;"/></g><g transform="matrix(50,0,0,50,605.064,345.41)"><path d="M0.04,-0.473l0.167,-0l-0,0.071l0.008,0c0.017,-0.03 0.039,-0.052 0.067,-0.064c0.028,-0.013 0.067,-0.019 0.116,-0.019c0.072,-0 0.121,0.014 0.149,0.042c0.028,0.028 0.042,0.077 0.042,0.149c0,0.004 0,0.014 -0.001,0.031l-0.166,0c-0,-0.027 -0.003,-0.047 -0.009,-0.058c-0.011,-0.021 -0.039,-0.031 -0.084,-0.031c-0.042,-0 -0.072,0.011 -0.09,0.034c-0.009,0.012 -0.014,0.026 -0.018,0.042c-0.003,0.017 -0.004,0.044 -0.004,0.08l-0,0.196l-0.177,-0l0,-0.473Z" style="fill:#fff;fill-rule:nonzero;"/></g></g></svg>