<?xml version="1.0" encoding="UTF-8" standalone="no"?><!DOCTYPE svg PUBLIC "-//W3C//DTD SVG 1.1//EN" "http://www.w3.org/Graphics/SVG/1.1/DTD/svg11.dtd"><svg width="100%" height="100%" viewBox="0 0 83 10" version="1.1" xmlns="http://www.w3.org/2000/svg" xmlns:xlink="http://www.w3.org/1999/xlink" xml:space="preserve" xmlns:serif="http://www.serif.com/" style="fill-rule:evenodd;clip-rule:evenodd;stroke-linejoin:round;stroke-miterlimit:2;"><rect id="Artboard2" x="0" y="0" width="82.794" height="10" style="fill:none;"/><g transform="matrix(0.24,0,0,0.24,-40.8785,-73.6251)"><g transform="matrix(50,0,0,50,171.952,345.41)"><path d="M0.545,-0.335c-0.009,-0.132 -0.121,-0.196 -0.243,-0.196c-0.168,0 -0.264,0.119 -0.264,0.28c0,0.155 0.105,0.265 0.261,0.265c0.136,-0 0.231,-0.075 0.249,-0.212l-0.137,0c-0.009,0.063 -0.047,0.105 -0.113,0.105c-0.089,0 -0.118,-0.089 -0.118,-0.163c-0,-0.076 0.03,-0.168 0.121,-0.168c0.059,-0 0.096,0.031 0.105,0.089l0.139,-0Z" style="fill:#fff;fill-rule:nonzero;"/></g><g transform="matrix(50,0,0,50,197.602,345.41)"><path d="M0.054,-0l0.142,-0l-0,-0.233c-0,-0.091 0.036,-0.166 0.14,-0.166c0.017,-0 0.038,0.002 0.051,0.005l-0,-0.132c-0.009,-0.003 -0.021,-0.005 -0.031,-0.005c-0.069,0 -0.139,0.045 -0.165,0.11l-0.002,-0l-0,-0.096l-0.135,0l0,0.517Z" style="fill:#fff;fill-rule:nonzero;"/></g><g transform="matrix(50,0,0,50,215.002,345.41)"><path d="M0.058,-0l0.142,-0l-0,-0.517l-0.142,0l0,0.517Zm0.142,-0.714l-0.142,0l0,0.117l0.142,-0l-0,-0.117Z" style="fill:#fff;fill-rule:nonzero;"/></g><g transform="matrix(50,0,0,50,223.352,345.41)"><path d="M0.058,-0l0.142,-0l-0,-0.3c-0,-0.101 0.068,-0.119 0.096,-0.119c0.09,-0 0.086,0.069 0.086,0.129l0,0.29l0.142,-0l-0,-0.288c-0,-0.065 0.015,-0.131 0.095,-0.131c0.081,-0 0.087,0.057 0.087,0.126l0,0.293l0.142,-0l-0,-0.346c-0,-0.134 -0.079,-0.185 -0.189,-0.185c-0.072,0 -0.126,0.041 -0.156,0.086c-0.028,-0.062 -0.086,-0.086 -0.151,-0.086c-0.067,0 -0.121,0.031 -0.158,0.084l-0.002,-0l-0,-0.07l-0.134,0l0,0.517Z" style="fill:#fff;fill-rule:nonzero;"/></g><g transform="matrix(50,0,0,50,264.602,345.41)"><path d="M0.544,-0.224c0.01,-0.159 -0.075,-0.307 -0.251,-0.307c-0.157,0 -0.264,0.118 -0.264,0.273c0,0.16 0.101,0.272 0.264,0.272c0.117,-0 0.202,-0.052 0.242,-0.174l-0.125,-0c-0.009,0.032 -0.055,0.067 -0.112,0.067c-0.079,0 -0.123,-0.041 -0.127,-0.131l0.373,-0Zm-0.373,-0.09c0.002,-0.04 0.028,-0.11 0.118,-0.11c0.069,-0 0.1,0.038 0.113,0.11l-0.231,0Z" style="fill:#fff;fill-rule:nonzero;"/></g><g transform="matrix(50,0,0,50,295.602,345.41)"><path d="M0.545,-0.335c-0.009,-0.132 -0.121,-0.196 -0.243,-0.196c-0.168,0 -0.264,0.119 -0.264,0.28c0,0.155 0.105,0.265 0.261,0.265c0.136,-0 0.231,-0.075 0.249,-0.212l-0.137,0c-0.009,0.063 -0.047,0.105 -0.113,0.105c-0.089,0 -0.118,-0.089 -0.118,-0.163c-0,-0.076 0.03,-0.168 0.121,-0.168c0.059,-0 0.096,0.031 0.105,0.089l0.139,-0Z" style="fill:#fff;fill-rule:nonzero;"/></g><g transform="matrix(50,0,0,50,321.252,345.41)"><path d="M0.038,-0.258c0,0.164 0.105,0.272 0.267,0.272c0.163,-0 0.268,-0.108 0.268,-0.272c-0,-0.165 -0.105,-0.273 -0.268,-0.273c-0.162,0 -0.267,0.108 -0.267,0.273Zm0.142,-0c-0,-0.083 0.029,-0.166 0.125,-0.166c0.097,-0 0.126,0.083 0.126,0.166c0,0.082 -0.029,0.165 -0.126,0.165c-0.096,0 -0.125,-0.083 -0.125,-0.165Z" style="fill:#fff;fill-rule:nonzero;"/></g><g transform="matrix(50,0,0,50,347.752,345.41)"><path d="M0.058,-0l0.142,-0l-0,-0.3c-0,-0.101 0.068,-0.119 0.096,-0.119c0.09,-0 0.086,0.069 0.086,0.129l0,0.29l0.142,-0l-0,-0.288c-0,-0.065 0.015,-0.131 0.095,-0.131c0.081,-0 0.087,0.057 0.087,0.126l0,0.293l0.142,-0l-0,-0.346c-0,-0.134 -0.079,-0.185 -0.189,-0.185c-0.072,0 -0.126,0.041 -0.156,0.086c-0.028,-0.062 -0.086,-0.086 -0.151,-0.086c-0.067,0 -0.121,0.031 -0.158,0.084l-0.002,-0l-0,-0.07l-0.134,0l0,0.517Z" style="fill:#fff;fill-rule:nonzero;"/></g><g transform="matrix(50,0,0,50,388.002,345.41)"><path d="M0.058,-0l0.142,-0l-0,-0.3c-0,-0.101 0.068,-0.119 0.096,-0.119c0.09,-0 0.086,0.069 0.086,0.129l0,0.29l0.142,-0l-0,-0.288c-0,-0.065 0.015,-0.131 0.095,-0.131c0.081,-0 0.087,0.057 0.087,0.126l0,0.293l0.142,-0l-0,-0.346c-0,-0.134 -0.079,-0.185 -0.189,-0.185c-0.072,0 -0.126,0.041 -0.156,0.086c-0.028,-0.062 -0.086,-0.086 -0.151,-0.086c-0.067,0 -0.121,0.031 -0.158,0.084l-0.002,-0l-0,-0.07l-0.134,0l0,0.517Z" style="fill:#fff;fill-rule:nonzero;"/></g><g transform="matrix(50,0,0,50,428.252,345.41)"><path d="M0.058,-0l0.142,-0l-0,-0.517l-0.142,0l0,0.517Zm0.142,-0.714l-0.142,0l0,0.117l0.142,-0l-0,-0.117Z" style="fill:#fff;fill-rule:nonzero;"/></g><g transform="matrix(50,0,0,50,438.602,345.41)"><path d="M0.234,-0.672l-0.142,0l0,0.155l-0.086,0l0,0.095l0.086,-0l0,0.305c0,0.103 0.076,0.123 0.163,0.123c0.028,-0 0.059,-0.001 0.083,-0.005l-0,-0.111c-0.015,0.003 -0.029,0.004 -0.044,0.004c-0.048,0 -0.06,-0.012 -0.06,-0.06l-0,-0.256l0.104,-0l-0,-0.095l-0.104,0l-0,-0.155Z" style="fill:#fff;fill-rule:nonzero;"/></g><g transform="matrix(50,0,0,50,453.652,345.41)"><path d="M0.234,-0.672l-0.142,0l0,0.155l-0.086,0l0,0.095l0.086,-0l0,0.305c0,0.103 0.076,0.123 0.163,0.123c0.028,-0 0.059,-0.001 0.083,-0.005l-0,-0.111c-0.015,0.003 -0.029,0.004 -0.044,0.004c-0.048,0 -0.06,-0.012 -0.06,-0.06l-0,-0.256l0.104,-0l-0,-0.095l-0.104,0l-0,-0.155Z" style="fill:#fff;fill-rule:nonzero;"/></g><g transform="matrix(50,0,0,50,468.202,345.41)"><path d="M0.544,-0.224c0.01,-0.159 -0.075,-0.307 -0.251,-0.307c-0.157,0 -0.264,0.118 -0.264,0.273c0,0.16 0.101,0.272 0.264,0.272c0.117,-0 0.202,-0.052 0.242,-0.174l-0.125,-0c-0.009,0.032 -0.055,0.067 -0.112,0.067c-0.079,0 -0.123,-0.041 -0.127,-0.131l0.373,-0Zm-0.373,-0.09c0.002,-0.04 0.028,-0.11 0.118,-0.11c0.069,-0 0.1,0.038 0.113,0.11l-0.231,0Z" style="fill:#fff;fill-rule:nonzero;"/></g><g transform="matrix(50,0,0,50,493.352,345.41)"><path d="M0.054,-0l0.142,-0l-0,-0.233c-0,-0.091 0.036,-0.166 0.14,-0.166c0.017,-0 0.038,0.002 0.051,0.005l-0,-0.132c-0.009,-0.003 -0.021,-0.005 -0.031,-0.005c-0.069,0 -0.139,0.045 -0.165,0.11l-0.002,-0l-0,-0.096l-0.135,0l0,0.517Z" style="fill:#fff;fill-rule:nonzero;"/></g></g></svg>